<svg width="48" height="48" viewBox="0 0 48 48" fill="none" xmlns="http://www.w3.org/2000/svg">
<path d="M24 18V26M24 34H24.02M43.4599 36L27.4599 7.99996C27.111 7.38437 26.6051 6.87234 25.9937 6.5161C25.3823 6.15986 24.6874 5.97217 23.9799 5.97217C23.2723 5.97217 22.5774 6.15986 21.966 6.5161C21.3547 6.87234 20.8487 7.38437 20.4999 7.99996L4.49986 36C4.14722 36.6107 3.96232 37.3038 3.96388 38.009C3.96544 38.7142 4.15341 39.4065 4.50875 40.0156C4.86409 40.6248 5.37415 41.1291 5.98725 41.4776C6.60034 41.8261 7.29467 42.0063 7.99986 42H39.9999C40.7017 41.9992 41.3909 41.8139 41.9984 41.4625C42.6059 41.1112 43.1103 40.6061 43.4609 39.9982C43.8115 39.3902 43.9959 38.7007 43.9958 37.9989C43.9956 37.2971 43.8108 36.6077 43.4599 36Z" stroke="#DC2626" stroke-width="3" stroke-linecap="round" stroke-linejoin="round"/>
</svg>
